<svg id="icons" xmlns="http://www.w3.org/2000/svg" viewBox="0 0 48 48"><defs><style>.cls-1{fill:#2a426c;}.cls-2{fill:#fff;}</style></defs><g id="coveralls"><rect class="cls-1" width="48" height="48" rx="24"/><path class="cls-2" d="M33,11.11H31.83a10.25,10.25,0,0,1-7.66,0H23c-2.78,0-5.94,2-5.94,4.43V28.1a2.37,2.37,0,0,0,2.51,2.22h0a.79.79,0,0,0,.83-.73V17.68c.11-.63.87-.59,1.19-.57a.72.72,0,0,1,.56.55V30.32h0V42.88a2.37,2.37,0,0,0,2.51,2.21h.21c1.45,0,2.19-.7,2.19-2v-11c0-.24.63-.8.9-.82a1.27,1.27,0,0,1,.93.82v11c0,1.28.81,2,2.26,2h.21a2.37,2.37,0,0,0,2.51-2.21V30.32h0V17.66c0-.2.27-.55.5-.55h.91c.23,0,.34.35.34.55V29.58a.8.8,0,0,0,.84.74h0A2.37,2.37,0,0,0,39,28.1V15.54C39,13.1,35.8,11.11,33,11.11Z" transform="translate(-4 -4)"/></g></svg>