<svg id="icons" xmlns="http://www.w3.org/2000/svg" viewBox="0 0 48 48"><defs><style>.cls-1{fill:#2a426c;}.cls-2{fill:#fff;}</style></defs><g id="patient"><rect class="cls-1" width="48" height="48" rx="24"/><path class="cls-2" d="M28,25.09A6.83,6.83,0,0,0,35,18.41a6.93,6.93,0,0,0-13.86,0A6.83,6.83,0,0,0,28,25.09Z" transform="translate(-4 -4)"/><path class="cls-2" d="M31.65,26.47a7.17,7.17,0,0,1-3.62,1,7.77,7.77,0,0,1-3.62-1,13.13,13.13,0,0,0-8.84,12.6,1.13,1.13,0,0,0,1,1.2H39.39a1.13,1.13,0,0,0,1-1.2A13,13,0,0,0,31.65,26.47Z" transform="translate(-4 -4)"/></g></svg>