<svg xmlns="http://www.w3.org/2000/svg" viewBox="0 0 52 52"><defs><style>.cls-1{fill:#2a426c;}.cls-2{fill:#fff;}.cls-3{fill:#4bca81;}</style></defs><g id="icons"><g id="gown"><rect class="cls-1" x="4" width="48" height="48" rx="24"/><path id="gown-2" data-name="gown" class="cls-2" d="M42.1,18.36,33.28,14A6.58,6.58,0,0,1,28,16.12,6.58,6.58,0,0,1,22.72,14L13.9,18.36a.72.72,0,0,0-.32,1l2.59,5.19a.72.72,0,0,0,1,.32l2.57-1.25a.72.72,0,0,1,1,.65l-1,16.33A1.45,1.45,0,0,0,21.23,42H34.76a1.45,1.45,0,0,0,1.45-1.45l-1-16.33a.72.72,0,0,1,1-.65l2.56,1.25a.73.73,0,0,0,1-.33l2.59-5.18A.71.71,0,0,0,42.1,18.36Z" transform="translate(0 -4)"/></g></g><g id="status"><g id="available"><circle id="bg" class="cls-3" cx="12" cy="40" r="12"/><g id="check"><path class="cls-2" d="M5,44.48a.72.72,0,0,1,0-1l1-1a.72.72,0,0,1,1,0l3.15,3.15L17,38.84a.72.72,0,0,1,1,0l1,1a.72.72,0,0,1,0,1l-8.28,8.28a.72.72,0,0,1-1,0Z" transform="translate(0 -4)"/></g></g></g></svg>