<svg xmlns="http://www.w3.org/2000/svg" viewBox="0 0 52 52"><defs><style>.cls-1{fill:#2a426c;}.cls-2{fill:#fff;}.cls-3{fill:#4bca81;}</style></defs><g id="icons"><g id="shoe_covers" data-name="shoe covers"><rect class="cls-1" x="4" width="48" height="48" rx="24"/><path class="cls-2" d="M42.7,28.39H14a1.76,1.76,0,0,0-1.65,1.83c0,.63,0,1.21,0,1.67v.49a2.49,2.49,0,0,0,.74,1.93c1,.95,2.83.95,6.43.95,1.05,0,2.17,0,3.49,0,2.07,0,4.51.1,6.89.17,2.94.06,5.7.16,7.27.16,2.55,0,6.08-.52,7.58-2a2.71,2.71,0,0,0,.81-2A3.2,3.2,0,0,0,42.7,28.39Z" transform="translate(0 -4)"/><path class="cls-2" d="M39.11,25.85a13.59,13.59,0,0,1-4-1,13.65,13.65,0,0,1-2.72-1.92l-.88,1a.38.38,0,0,1-.58,0,.5.5,0,0,1,0-.65l.81-.91c-.32-.28-.62-.55-.88-.81l-.86,1a.38.38,0,0,1-.58,0,.5.5,0,0,1,0-.65l.81-.92c-.23-.22-.4-.4-.49-.49l-.16-.15a3,3,0,0,0-2-1.26h-.06c-.93,0-1.88.82-2.93,2.37a3,3,0,0,1-3.69,1,8.62,8.62,0,0,1-2.3-1.23,2.31,2.31,0,0,0-.23-.18c-.63-.52-1.45-1.26-2.41-1a2.42,2.42,0,0,0-1.51,1.55,11.35,11.35,0,0,0-.67,3.23,1.06,1.06,0,0,0,1,1.23H40.21C39.75,26,39.62,25.9,39.11,25.85Z" transform="translate(0 -4)"/></g></g><g id="status"><g id="available"><circle id="bg" class="cls-3" cx="12" cy="40" r="12"/><g id="check"><path class="cls-2" d="M5,44.48a.72.72,0,0,1,0-1l1-1a.72.72,0,0,1,1,0l3.15,3.15L17,38.84a.72.72,0,0,1,1,0l1,1a.72.72,0,0,1,0,1l-8.28,8.28a.72.72,0,0,1-1,0Z" transform="translate(0 -4)"/></g></g></g></svg>