<svg xmlns="http://www.w3.org/2000/svg" viewBox="0 0 52 52"><defs><style>.cls-1{fill:#2a426c;}.cls-2{fill:#fff;}.cls-3{fill:#0070d2;}</style></defs><g id="icons"><g id="patient"><rect class="cls-1" x="4" width="48" height="48" rx="24"/><path class="cls-2" d="M28,25.09A6.83,6.83,0,0,0,35,18.41a6.93,6.93,0,0,0-13.86,0A6.83,6.83,0,0,0,28,25.09Z" transform="translate(0 -4)"/><path class="cls-2" d="M31.65,26.47a7.17,7.17,0,0,1-3.62,1,7.77,7.77,0,0,1-3.62-1,13.13,13.13,0,0,0-8.84,12.6,1.13,1.13,0,0,0,1,1.2H39.39a1.13,1.13,0,0,0,1-1.2A13,13,0,0,0,31.65,26.47Z" transform="translate(0 -4)"/></g></g><g id="status"><g id="covid_like" data-name="covid like"><circle id="bg" class="cls-3" cx="12" cy="40" r="12"/><path class="cls-2" d="M17.16,41c0,3.4-3.67,3.45-3.67,4.71v.17a.71.71,0,0,1-.71.7H10.66a.7.7,0,0,1-.7-.7v-.29c0-1.81,1.37-2.54,2.41-3.12s1.43-.84,1.43-1.5c0-.87-1.11-1.45-2-1.45A2.85,2.85,0,0,0,9.36,41a.71.71,0,0,1-1,.12l-1.27-1a.71.71,0,0,1-.15-1,5.68,5.68,0,0,1,5-2.67C14.5,36.5,17.16,38.44,17.16,41Zm-3.41,8.47a2,2,0,1,1-2-2A2,2,0,0,1,13.75,49.47Z" transform="translate(0 -4)"/></g></g></svg>