<svg xmlns="http://www.w3.org/2000/svg" viewBox="0 0 52 52"><defs><style>.cls-1{fill:#2a426c;}.cls-2{fill:#fff;}.cls-3{fill:#4bca81;}</style></defs><g id="icons"><g id="sanitizer"><rect class="cls-1" x="4" width="48" height="48" rx="24"/><path class="cls-2" d="M31.65,22.38H22.79a3.73,3.73,0,0,0-3.73,3.4l-1.2,13.13A3.75,3.75,0,0,0,21.26,43l.34,0H32.85a3.75,3.75,0,0,0,3.75-3.75c0-.11,0-.23,0-.34L35.39,25.78A3.75,3.75,0,0,0,31.65,22.38Zm8.42-3.87L37.54,16a3.78,3.78,0,0,0-2.66-1.09H31A1.88,1.88,0,0,0,29.1,13H25.35a1.88,1.88,0,0,0-1.88,1.88V20.5H31V18.63h3.91l2.54,2.53a.94.94,0,0,0,1.33,0h0l1.32-1.32a.94.94,0,0,0,0-1.33Z" transform="translate(0 -4)"/></g></g><g id="status"><g id="available"><circle id="bg" class="cls-3" cx="12" cy="40" r="12"/><g id="check"><path class="cls-2" d="M5,44.48a.72.72,0,0,1,0-1l1-1a.72.72,0,0,1,1,0l3.15,3.15L17,38.84a.72.72,0,0,1,1,0l1,1a.72.72,0,0,1,0,1l-8.28,8.28a.72.72,0,0,1-1,0Z" transform="translate(0 -4)"/></g></g></g></svg>