<svg xmlns="http://www.w3.org/2000/svg" viewBox="0 0 48 48"><defs><style>.cls-1{fill:#2a426c;}.cls-2{fill:#fff;}</style></defs><g id="icons"><g id="glove"><rect class="cls-1" width="48" height="48" rx="24"/><path class="cls-2" d="M38.56,16.5a1.81,1.81,0,0,0-2,1.61l-1,8.15a.55.55,0,0,1-.61.48h0a.53.53,0,0,1-.52-.6l.48-10.6a1.81,1.81,0,1,0-3.61-.16L30.81,26a.53.53,0,0,1-.6.52.54.54,0,0,1-.53-.52l-.8-12.29a1.81,1.81,0,0,0-3.61.24L26,25.74a.57.57,0,0,1-.6.6h-.2a.52.52,0,0,1-.52-.48L23,16.18a1.81,1.81,0,0,0-3.57.6s1.44,7.87,1.64,9.56.32,2.65.4,4.14c0,.84-.68,1.4-1.48.56,0,0-1.57-1.93-2.45-2.81s-1.85-1.25-2.81-.64a2,2,0,0,0-.6,2.89,83.75,83.75,0,0,0,6.38,9.11c1,1.17,2.45,2.41,4,2.41h8.07c4.09,0,5.05-4,5.62-8.15s2-15.34,2-15.34A1.89,1.89,0,0,0,38.56,16.5Z" transform="translate(-4 -4)"/></g></g><g id="type"><circle class="cls-1" cx="33" cy="34" r="9"/><g id="s"><path class="cls-2" d="M40.75,39.45A2.75,2.75,0,0,1,40.32,41,2.86,2.86,0,0,1,39,42a4.63,4.63,0,0,1-2,.38,4.47,4.47,0,0,1-2.28-.52,3.08,3.08,0,0,1-1-1,2.27,2.27,0,0,1-.39-1.21.8.8,0,0,1,.84-.83.72.72,0,0,1,.51.19,1.54,1.54,0,0,1,.35.56,3.73,3.73,0,0,0,.38.75,1.66,1.66,0,0,0,.58.49A2.16,2.16,0,0,0,37,41a2.22,2.22,0,0,0,1.36-.39,1.16,1.16,0,0,0,.52-1,1.05,1.05,0,0,0-.28-.76,1.83,1.83,0,0,0-.73-.44,12.12,12.12,0,0,0-1.2-.32A8.94,8.94,0,0,1,35,37.59a2.78,2.78,0,0,1-1.07-.86,2.25,2.25,0,0,1-.4-1.35A2.31,2.31,0,0,1,34,34a2.63,2.63,0,0,1,1.22-.92A5,5,0,0,1,37,32.78a4.63,4.63,0,0,1,1.48.21,3.12,3.12,0,0,1,1,.57,2.13,2.13,0,0,1,.6.74,1.69,1.69,0,0,1,.2.75.89.89,0,0,1-.24.61.77.77,0,0,1-.6.27.67.67,0,0,1-.49-.16,2.39,2.39,0,0,1-.36-.53,2.44,2.44,0,0,0-.61-.82,1.78,1.78,0,0,0-1.15-.3,2,2,0,0,0-1.17.32.93.93,0,0,0-.45.77.76.76,0,0,0,.15.48,1.13,1.13,0,0,0,.42.35,2.5,2.5,0,0,0,.54.23q.27.09.9.24c.53.13,1,.26,1.43.41a4.54,4.54,0,0,1,1.08.54,2.24,2.24,0,0,1,.7.8A2.55,2.55,0,0,1,40.75,39.45Z" transform="translate(-4 -4)"/></g></g></svg>