<svg xmlns="http://www.w3.org/2000/svg" viewBox="0 0 52 52"><defs><style>.cls-1{fill:#2a426c;}.cls-2{fill:#fff;}.cls-3{fill:#4bca81;}</style></defs><g id="icons"><g id="disinfectant"><rect class="cls-1" x="4" width="48" height="48" rx="24"/><path class="cls-2" d="M30.43,12.53l-5.13,0a.84.84,0,0,0-.85.85v1.71a.86.86,0,0,0,.86.86l0,5.8A6.72,6.72,0,0,0,21.12,28l.07,12a3.49,3.49,0,0,0,3.45,3.45l6.84,0a3.37,3.37,0,0,0,3.4-3.4l-.07-12a7,7,0,0,0-4.32-6.37l0-5.79a.85.85,0,0,0,.85-.86V13.39a.87.87,0,0,0-.86-.86Zm1,25.68-6.85-.05-.06-9.23,6.85.05Z" transform="translate(0 -4)"/></g></g><g id="status"><g id="available"><circle id="bg" class="cls-3" cx="12" cy="40" r="12"/><g id="check"><path class="cls-2" d="M5,44.48a.72.72,0,0,1,0-1l1-1a.72.72,0,0,1,1,0l3.15,3.15L17,38.84a.72.72,0,0,1,1,0l1,1a.72.72,0,0,1,0,1l-8.28,8.28a.72.72,0,0,1-1,0Z" transform="translate(0 -4)"/></g></g></g></svg>