<svg xmlns="http://www.w3.org/2000/svg" viewBox="0 0 52 52"><defs><style>.cls-1{fill:#2a426c;}.cls-2{fill:#fff;}.cls-3{fill:#4bca81;}</style></defs><g id="icons"><g id="mask"><rect class="cls-1" x="4" width="48" height="48" rx="24"/><path class="cls-2" d="M40.44,21.17v-1a.91.91,0,0,0-.55-.9c-1.2-.39-2.18-.67-3.09-.91l-.9.94v16.1l.9,1.33c.91-.24,1.89-.52,3.09-.91a.92.92,0,0,0,.55-.9v-1C43,33.49,45,30.8,45,27.55S43,21.62,40.44,21.17Zm1.37,10.2a3.38,3.38,0,0,1-1.37.7V23a3.38,3.38,0,0,1,1.37.7,5.19,5.19,0,0,1,0,7.63Z" transform="translate(0 -4)"/><path class="cls-2" d="M20.1,22.4V19.46l-.9-1.09c-.91.24-1.89.52-3.09.91a.91.91,0,0,0-.55.9v1C13,21.62,11,24.31,11,27.55a7.2,7.2,0,0,0,1.56,4.56,5,5,0,0,0,3,1.83v1a.89.89,0,0,0,.56.88c1.19.41,2.16.71,3.07.93h0L20.1,35V22.4Zm-4.54,5.82v3.85a3.38,3.38,0,0,1-1.37-.7,5.19,5.19,0,0,1,0-7.63,3.38,3.38,0,0,1,1.37-.7Z" transform="translate(0 -4)"/><path class="cls-2" d="M21.78,18.18l-.74-.9.54-.1a35.51,35.51,0,0,1,6.61-.61,28.81,28.81,0,0,1,5.2.43c.51.08,1,.16,1.51.27l-.68.71v3.53H21.78Z" transform="translate(0 -4)"/><rect class="cls-2" x="21.78" y="19.74" width="12.44" height="3.15"/><rect class="cls-2" x="21.78" y="25.12" width="12.44" height="3.15"/><path class="cls-2" d="M35,38.71c-.94.2-1.88.36-2.81.48a41,41,0,0,1-4.4.24,30.75,30.75,0,0,1-6.49-.66l-.39-.08.85-1.64V34.49H34.22v3Z" transform="translate(0 -4)"/></g></g><g id="type"><circle class="cls-1" cx="37" cy="34" r="9"/><g id="s"><path class="cls-2" d="M40.75,39.45A2.75,2.75,0,0,1,40.32,41,2.86,2.86,0,0,1,39,42a4.63,4.63,0,0,1-2,.38,4.47,4.47,0,0,1-2.28-.52,3.08,3.08,0,0,1-1-1,2.27,2.27,0,0,1-.39-1.21.8.8,0,0,1,.84-.83.72.72,0,0,1,.51.19,1.54,1.54,0,0,1,.35.56,3.73,3.73,0,0,0,.38.75,1.66,1.66,0,0,0,.58.49A2.16,2.16,0,0,0,37,41a2.22,2.22,0,0,0,1.36-.39,1.16,1.16,0,0,0,.52-1,1.05,1.05,0,0,0-.28-.76,1.83,1.83,0,0,0-.73-.44,12.12,12.12,0,0,0-1.2-.32A8.94,8.94,0,0,1,35,37.59a2.78,2.78,0,0,1-1.07-.86,2.25,2.25,0,0,1-.4-1.35A2.31,2.31,0,0,1,34,34a2.63,2.63,0,0,1,1.22-.92A5,5,0,0,1,37,32.78a4.63,4.63,0,0,1,1.48.21,3.12,3.12,0,0,1,1,.57,2.13,2.13,0,0,1,.6.74,1.69,1.69,0,0,1,.2.75.89.89,0,0,1-.24.61.77.77,0,0,1-.6.27.67.67,0,0,1-.49-.16,2.39,2.39,0,0,1-.36-.53,2.44,2.44,0,0,0-.61-.82,1.78,1.78,0,0,0-1.15-.3,2,2,0,0,0-1.17.32.93.93,0,0,0-.45.77.76.76,0,0,0,.15.48,1.13,1.13,0,0,0,.42.35,2.5,2.5,0,0,0,.54.23q.27.09.9.24c.53.13,1,.26,1.43.41a4.54,4.54,0,0,1,1.08.54,2.24,2.24,0,0,1,.7.8A2.55,2.55,0,0,1,40.75,39.45Z" transform="translate(0 -4)"/></g></g><g id="status"><g id="available"><circle id="bg" class="cls-3" cx="12" cy="40" r="12"/><g id="check"><path class="cls-2" d="M5,44.48a.72.72,0,0,1,0-1l1-1a.72.72,0,0,1,1,0l3.15,3.15L17,38.84a.72.72,0,0,1,1,0l1,1a.72.72,0,0,1,0,1l-8.28,8.28a.72.72,0,0,1-1,0Z" transform="translate(0 -4)"/></g></g></g></svg>