<svg xmlns="http://www.w3.org/2000/svg" viewBox="0 0 52 52"><defs><style>.cls-1{fill:#2a426c;}.cls-2{fill:#fff;}.cls-3{fill:#4bca81;}</style></defs><g id="icons"><g id="fit_test" data-name="fit test"><rect class="cls-1" x="4" width="48" height="48" rx="24"/><path class="cls-2" d="M27.35,24.15a2.22,2.22,0,0,1-1.49-.2l4.58,19a1.44,1.44,0,0,0,2.73-.66l-4.58-19A2.24,2.24,0,0,1,27.35,24.15Z" transform="translate(0 -4)"/><ellipse class="cls-2" cx="25.61" cy="16.92" rx="3.88" ry="5.2" transform="translate(-3.25 2.47) rotate(-13.56)"/></g></g><g id="status"><g id="available"><circle id="bg" class="cls-3" cx="12" cy="40" r="12"/><g id="check"><path class="cls-2" d="M5,44.48a.72.72,0,0,1,0-1l1-1a.72.72,0,0,1,1,0l3.15,3.15L17,38.84a.72.72,0,0,1,1,0l1,1a.72.72,0,0,1,0,1l-8.28,8.28a.72.72,0,0,1-1,0Z" transform="translate(0 -4)"/></g></g></g></svg>