<svg xmlns="http://www.w3.org/2000/svg" viewBox="0 0 52 52"><defs><style>.cls-1{fill:#2a426c;}.cls-2{fill:#fff;}.cls-3{fill:#4bca81;}</style></defs><g id="icons"><g id="machine"><rect class="cls-1" x="4" width="48" height="48" rx="24"/><path class="cls-2" d="M28,34.93a2.6,2.6,0,1,0-2.58-2.6A2.59,2.59,0,0,0,28,34.93Z" transform="translate(0 -4)"/><path class="cls-2" d="M18,39.9A1.11,1.11,0,0,0,19.1,41H36.83a1.11,1.11,0,0,0,1.1-1.1V23.67H18ZM28,27.53a4.75,4.75,0,1,1-4.73,4.75A4.74,4.74,0,0,1,28,27.53Z" transform="translate(0 -4)"/><path class="cls-2" d="M43.27,30.4a1.72,1.72,0,0,1-.77-1,6.53,6.53,0,0,1-.22-1.87,8.79,8.79,0,0,1,.66-3.87,1.16,1.16,0,0,1,.27-.44c.17-.33.39-.66.55-1.05a2.78,2.78,0,0,0-.11-2.48,2.8,2.8,0,0,0-1.15-1.11,5.31,5.31,0,0,0-4.57-.22V16.1a1.11,1.11,0,0,0-1.1-1.1H19.1A1.11,1.11,0,0,0,18,16.1v5.36H37.93V20.8a3.27,3.27,0,0,1,3.52-.34c.22.12.33.23.33.28a.92.92,0,0,1-.05.66c-.11.22-.22.5-.39.78s-.22.38-.33.55a10.65,10.65,0,0,0-.93,4.86,8,8,0,0,0,.33,2.54,4,4,0,0,0,1.87,2.31,1.48,1.48,0,0,0,.44.11,1.17,1.17,0,0,0,1-.6A1.13,1.13,0,0,0,43.27,30.4Z" transform="translate(0 -4)"/></g></g><g id="status"><g id="available"><circle id="bg" class="cls-3" cx="12" cy="40" r="12"/><g id="check"><path class="cls-2" d="M5,44.48a.72.72,0,0,1,0-1l1-1a.72.72,0,0,1,1,0l3.15,3.15L17,38.84a.72.72,0,0,1,1,0l1,1a.72.72,0,0,1,0,1l-8.28,8.28a.72.72,0,0,1-1,0Z" transform="translate(0 -4)"/></g></g></g></svg>