<svg id="icons" xmlns="http://www.w3.org/2000/svg" viewBox="0 0 48 48"><defs><style>.cls-1{fill:#2a426c;}.cls-2{fill:#fff;}</style></defs><g id="hood"><rect class="cls-1" width="48" height="48" rx="24"/><path class="cls-2" d="M28,23.64a5.64,5.64,0,0,0-5.64,5.63v8.44H33.66V29.27A5.64,5.64,0,0,0,28,23.64ZM41.69,36a12.59,12.59,0,0,1-2.8-6.85h0V26c0-4.09-2.25-6-4.92-8.9l1.93-1.93a1,1,0,0,0-.67-1.63H28c-4.65,0-10.87,5.32-10.87,12.46v3.12A12.59,12.59,0,0,1,14.31,36a1.54,1.54,0,0,0-.31.94,1.57,1.57,0,0,0,1.57,1.55h4.67V29.12a7.78,7.78,0,1,1,15.55,0v9.34h4.64A1.57,1.57,0,0,0,42,36.91a1.54,1.54,0,0,0-.31-.94Z" transform="translate(-4 -4)"/></g></svg>