<svg id="icons" xmlns="http://www.w3.org/2000/svg" viewBox="0 0 48 48"><defs><style>.cls-1{fill:#2a426c;}.cls-2{fill:#fff;}</style></defs><g id="shield"><rect class="cls-1" width="48" height="48" rx="24"/><g id="shield-2" data-name="shield"><path class="cls-2" d="M23.47,19.89v4.49H17c-.3-5.69,2.25-10.88,10.49-10.88,3.91,0,6,2,6.75,4.29H25.53A2.13,2.13,0,0,0,23.47,19.89Z" transform="translate(-4 -4)"/><path class="cls-2" d="M23.47,31v6.59C20.06,36.29,17,34.58,17,31Z" transform="translate(-4 -4)"/><path class="cls-2" d="M16.06,26h9.06V21.09c-.08-1.23.74-1.65,1.65-1.65H38.43C40,19.44,40.76,26,40.76,31S38.81,42.5,37.47,42.5l-10.12-.79c-1.76-.36-2.23-.83-2.23-2.48V29.32H16.06a.82.82,0,0,1-.82-.82V26.85A.82.82,0,0,1,16.06,26Z" transform="translate(-4 -4)"/></g></g></svg>