<svg xmlns="http://www.w3.org/2000/svg" viewBox="0 0 52 52"><defs><style>.cls-1{fill:#2a426c;}.cls-2{fill:#fff;}.cls-3{fill:#4bca81;}</style></defs><g id="icons"><g id="glove"><rect class="cls-1" x="4" width="48" height="48" rx="24"/><path class="cls-2" d="M38.56,16.5a1.81,1.81,0,0,0-2,1.61l-1,8.15a.55.55,0,0,1-.61.48h0a.53.53,0,0,1-.52-.6l.48-10.6a1.81,1.81,0,1,0-3.61-.16L30.81,26a.53.53,0,0,1-.6.52.54.54,0,0,1-.53-.52l-.8-12.29a1.81,1.81,0,0,0-3.61.24L26,25.74a.57.57,0,0,1-.6.6h-.2a.52.52,0,0,1-.52-.48L23,16.18a1.81,1.81,0,0,0-3.57.6s1.44,7.87,1.64,9.56.32,2.65.4,4.14c0,.84-.68,1.4-1.48.56,0,0-1.57-1.93-2.45-2.81s-1.85-1.25-2.81-.64a2,2,0,0,0-.6,2.89,83.75,83.75,0,0,0,6.38,9.11c1,1.17,2.45,2.41,4,2.41h8.07c4.09,0,5.05-4,5.62-8.15s2-15.34,2-15.34A1.89,1.89,0,0,0,38.56,16.5Z" transform="translate(0 -4)"/></g></g><g id="status"><g id="available"><circle id="bg" class="cls-3" cx="12" cy="40" r="12"/><g id="check"><path class="cls-2" d="M5,44.48a.72.72,0,0,1,0-1l1-1a.72.72,0,0,1,1,0l3.15,3.15L17,38.84a.72.72,0,0,1,1,0l1,1a.72.72,0,0,1,0,1l-8.28,8.28a.72.72,0,0,1-1,0Z" transform="translate(0 -4)"/></g></g></g></svg>