<svg xmlns="http://www.w3.org/2000/svg" viewBox="0 0 52 52"><defs><style>.cls-1{fill:#2a426c;}.cls-2{fill:#fff;}.cls-3{fill:#8a76f0;}</style></defs><g id="icons"><g id="patient"><rect class="cls-1" x="4" width="48" height="48" rx="24"/><path class="cls-2" d="M28,25.09A6.83,6.83,0,0,0,35,18.41a6.93,6.93,0,0,0-13.86,0A6.83,6.83,0,0,0,28,25.09Z" transform="translate(0 -4)"/><path class="cls-2" d="M31.65,26.47a7.17,7.17,0,0,1-3.62,1,7.77,7.77,0,0,1-3.62-1,13.13,13.13,0,0,0-8.84,12.6,1.13,1.13,0,0,0,1,1.2H39.39a1.13,1.13,0,0,0,1-1.2A13,13,0,0,0,31.65,26.47Z" transform="translate(0 -4)"/></g></g><g id="status"><g id="comorbidity"><circle id="bg" class="cls-3" cx="12" cy="40" r="12"/><path class="cls-2" d="M12.53,38l4.25,4.25a.75.75,0,0,1,0,1.06l-.71.71A.75.75,0,0,1,15,44l-3-3L9,44a.75.75,0,0,1-1.06,0l-.71-.71a.75.75,0,0,1,0-1.06L11.47,38A.75.75,0,0,1,12.53,38Zm4.25,10.25a.74.74,0,0,1,0,1.06l-.7.71A.75.75,0,0,1,15,50l-3-3L9,50a.75.75,0,0,1-1.06,0l-.71-.71a.75.75,0,0,1,0-1.06L11.47,44a.75.75,0,0,1,1.06,0Z" transform="translate(0 -4)"/></g></g></svg>