<svg id="icons" xmlns="http://www.w3.org/2000/svg" viewBox="0 0 48 48"><defs><style>.cls-1{fill:#2a426c;}.cls-2{fill:#fff;}</style></defs><g id="goggles"><rect class="cls-1" width="48" height="48" rx="24"/><path class="cls-2" d="M39.76,19.7H16.24a4.79,4.79,0,0,0-4.81,4.81v5.72A4.82,4.82,0,0,0,15.81,35l5.19.48h.42a4.85,4.85,0,0,0,4.12-2.35L26.82,31A1.35,1.35,0,0,1,28,30.39a1.49,1.49,0,0,1,1.18.64l1.28,2.14A4.88,4.88,0,0,0,35,35.47L40.19,35a4.79,4.79,0,0,0,4.38-4.81V24.51A4.79,4.79,0,0,0,39.76,19.7Z" transform="translate(-4 -4)"/></g></svg>