<svg xmlns="http://www.w3.org/2000/svg" viewBox="0 0 52 52"><defs><style>.cls-1{fill:#2a426c;}.cls-2{fill:#fff;}.cls-3{fill:#4bca81;}</style></defs><g id="icons"><g id="goggles"><rect class="cls-1" x="4" width="48" height="48" rx="24"/><path class="cls-2" d="M39.76,19.7H16.24a4.79,4.79,0,0,0-4.81,4.81v5.72A4.82,4.82,0,0,0,15.81,35l5.19.48h.42a4.85,4.85,0,0,0,4.12-2.35L26.82,31A1.35,1.35,0,0,1,28,30.39a1.49,1.49,0,0,1,1.18.64l1.28,2.14A4.88,4.88,0,0,0,35,35.47L40.19,35a4.79,4.79,0,0,0,4.38-4.81V24.51A4.79,4.79,0,0,0,39.76,19.7Z" transform="translate(0 -4)"/></g></g><g id="status"><g id="available"><circle id="bg" class="cls-3" cx="12" cy="40" r="12"/><g id="check"><path class="cls-2" d="M5,44.48a.72.72,0,0,1,0-1l1-1a.72.72,0,0,1,1,0l3.15,3.15L17,38.84a.72.72,0,0,1,1,0l1,1a.72.72,0,0,1,0,1l-8.28,8.28a.72.72,0,0,1-1,0Z" transform="translate(0 -4)"/></g></g></g></svg>