<svg xmlns="http://www.w3.org/2000/svg" viewBox="0 0 52 52"><defs><style>.cls-1{fill:#2a426c;}.cls-2{fill:#fff;}.cls-3{fill:#d4504c;}</style></defs><g id="icons"><g id="patient"><rect class="cls-1" x="4" width="48" height="48" rx="24"/><path class="cls-2" d="M28,25.09A6.83,6.83,0,0,0,35,18.41a6.93,6.93,0,0,0-13.86,0A6.83,6.83,0,0,0,28,25.09Z" transform="translate(0 -4)"/><path class="cls-2" d="M31.65,26.47a7.17,7.17,0,0,1-3.62,1,7.77,7.77,0,0,1-3.62-1,13.13,13.13,0,0,0-8.84,12.6,1.13,1.13,0,0,0,1,1.2H39.39a1.13,1.13,0,0,0,1-1.2A13,13,0,0,0,31.65,26.47Z" transform="translate(0 -4)"/></g></g><g id="status"><g id="cormobidity"><circle id="bg" class="cls-3" cx="12" cy="40" r="12"/><path id="bug" class="cls-2" d="M19.13,42.49h-.75a.38.38,0,0,0-.38.38v.37H16.81a4.85,4.85,0,0,0-.87-2.12l.87-.88.27.27a.37.37,0,0,0,.53,0l.53-.53a.39.39,0,0,0,0-.53l-1.59-1.59a.37.37,0,0,0-.53,0l-.53.53a.37.37,0,0,0,0,.53l.26.26-.87.88a5,5,0,0,0-2.12-.88V38h.37a.38.38,0,0,0,.38-.38v-.75a.38.38,0,0,0-.38-.37H10.88a.38.38,0,0,0-.37.37v.75a.38.38,0,0,0,.37.38h.38v1.18a4.91,4.91,0,0,0-2.15.9l-.78-.89.28-.25a.38.38,0,0,0,0-.53l-.5-.56a.37.37,0,0,0-.53,0L5.93,39.3a.37.37,0,0,0,0,.53l.49.56a.38.38,0,0,0,.53,0l.28-.25.86,1a4.83,4.83,0,0,0-.86,2.1L6,43.23v-.37a.37.37,0,0,0-.37-.38H4.9a.38.38,0,0,0-.37.37l0,2.25a.38.38,0,0,0,.37.38h.75A.38.38,0,0,0,6,45.11v-.38l1.2,0a4.84,4.84,0,0,0,.86,2.09l-.86,1-.28-.25a.37.37,0,0,0-.53,0l-.5.55a.39.39,0,0,0,0,.53l1.68,1.5a.37.37,0,0,0,.53,0l.5-.55a.39.39,0,0,0,0-.53l-.28-.25.8-.89a4.94,4.94,0,0,0,2.13.89l0,1.2h-.38a.38.38,0,0,0-.36.38v.75a.37.37,0,0,0,.38.37l2.25,0a.38.38,0,0,0,.36-.38v-.75a.37.37,0,0,0-.38-.37h-.37l0-1.17a4.86,4.86,0,0,0,2.13-.88l.87.88-.26.26a.37.37,0,0,0,0,.53l.53.53a.37.37,0,0,0,.53,0l1.59-1.59a.39.39,0,0,0,0-.53l-.53-.53a.39.39,0,0,0-.53,0l-.27.27-.87-.88a4.75,4.75,0,0,0,.87-2.12H18v.38a.38.38,0,0,0,.38.37h.75a.38.38,0,0,0,.37-.37V42.87A.38.38,0,0,0,19.13,42.49Z" transform="translate(0 -4)"/></g></g></svg>