<svg xmlns="http://www.w3.org/2000/svg" viewBox="0 0 48 48"><defs><style>.cls-1{fill:#2a426c;}.cls-2{fill:#fff;}</style></defs><g id="icons"><g id="glove"><rect class="cls-1" width="48" height="48" rx="24"/><path class="cls-2" d="M38.56,16.5a1.81,1.81,0,0,0-2,1.61l-1,8.15a.55.55,0,0,1-.61.48h0a.53.53,0,0,1-.52-.6l.48-10.6a1.81,1.81,0,1,0-3.61-.16L30.81,26a.53.53,0,0,1-.6.52.54.54,0,0,1-.53-.52l-.8-12.29a1.81,1.81,0,0,0-3.61.24L26,25.74a.57.57,0,0,1-.6.6h-.2a.52.52,0,0,1-.52-.48L23,16.18a1.81,1.81,0,0,0-3.57.6s1.44,7.87,1.64,9.56.32,2.65.4,4.14c0,.84-.68,1.4-1.48.56,0,0-1.57-1.93-2.45-2.81s-1.85-1.25-2.81-.64a2,2,0,0,0-.6,2.89,83.75,83.75,0,0,0,6.38,9.11c1,1.17,2.45,2.41,4,2.41h8.07c4.09,0,5.05-4,5.62-8.15s2-15.34,2-15.34A1.89,1.89,0,0,0,38.56,16.5Z" transform="translate(-4 -4)"/></g></g><g id="type"><circle class="cls-1" cx="33" cy="34" r="9"/><g id="n"><path class="cls-2" d="M35.53,33.91l3.63,5.49V33.86a1.24,1.24,0,0,1,.23-.81.77.77,0,0,1,.62-.27.82.82,0,0,1,.65.27,1.24,1.24,0,0,1,.23.81v7.32c0,.82-.34,1.22-1,1.22a1.31,1.31,0,0,1-.46-.07A1.08,1.08,0,0,1,39,42.1a2.35,2.35,0,0,1-.33-.37l-.31-.44-3.53-5.42v5.46a1.18,1.18,0,0,1-.25.8.89.89,0,0,1-1.28,0,1.19,1.19,0,0,1-.24-.8V34.15a2.21,2.21,0,0,1,.1-.72,1.07,1.07,0,0,1,.4-.47,1.11,1.11,0,0,1,.61-.18,1.1,1.1,0,0,1,.43.08,1,1,0,0,1,.32.23,2.38,2.38,0,0,1,.28.36Z" transform="translate(-4 -4)"/></g></g></svg>