<svg xmlns="http://www.w3.org/2000/svg" viewBox="0 0 52 52"><defs><style>.cls-1{fill:#2a426c;}.cls-2{fill:#fff;}.cls-3{fill:#4bca81;}</style></defs><g id="icons"><g id="goggles_copy" data-name="goggles copy"><rect class="cls-1" x="4" width="48" height="48" rx="24"/><path class="cls-2" d="M43.09,27.21,40.7,20.63a4.63,4.63,0,0,0-6-3.28l-.8.27a.84.84,0,0,0-.54,1.07l.27.8a.84.84,0,0,0,1.07.53l.69-.23a2.26,2.26,0,0,1,1.75.09,2.07,2.07,0,0,1,1.07,1.36l2,5.12A14.52,14.52,0,0,0,36,25.7a13.87,13.87,0,0,0-6.06,1.41H26.07A13.84,13.84,0,0,0,20,25.7a14.52,14.52,0,0,0-4.28.66l2-5.12a2.07,2.07,0,0,1,1.07-1.36,2.26,2.26,0,0,1,1.75-.09l.69.23a.84.84,0,0,0,1.07-.53l.27-.81a.83.83,0,0,0-.54-1.06l-.8-.27a4.63,4.63,0,0,0-6,3.28l-2.39,6.58a3.29,3.29,0,0,0-.1.82v3.71a6,6,0,0,0,6.07,6h2a6.06,6.06,0,0,0,6.06-5.56l.16-2h1.88l.16,2a6.06,6.06,0,0,0,6.06,5.56h2a6,6,0,0,0,6.07-6V28A3.29,3.29,0,0,0,43.09,27.21Z" transform="translate(0 -4)"/></g></g><g id="status"><g id="available"><circle id="bg" class="cls-3" cx="12" cy="40" r="12"/><g id="check"><path class="cls-2" d="M5,44.48a.72.72,0,0,1,0-1l1-1a.72.72,0,0,1,1,0l3.15,3.15L17,38.84a.72.72,0,0,1,1,0l1,1a.72.72,0,0,1,0,1l-8.28,8.28a.72.72,0,0,1-1,0Z" transform="translate(0 -4)"/></g></g></g></svg>