<svg id="icons" xmlns="http://www.w3.org/2000/svg" viewBox="0 0 48 48"><defs><style>.cls-1{fill:#2a426c;}.cls-2{fill:#fff;}</style></defs><g id="disinfectant"><rect class="cls-1" width="48" height="48" rx="24"/><path class="cls-2" d="M30.43,12.53l-5.13,0a.84.84,0,0,0-.85.85v1.71a.86.86,0,0,0,.86.86l0,5.8A6.72,6.72,0,0,0,21.12,28l.07,12a3.49,3.49,0,0,0,3.45,3.45l6.84,0a3.37,3.37,0,0,0,3.4-3.4l-.07-12a7,7,0,0,0-4.32-6.37l0-5.79a.85.85,0,0,0,.85-.86V13.39a.87.87,0,0,0-.86-.86Zm1,25.68-6.85-.05-.06-9.23,6.85.05Z" transform="translate(-4 -4)"/></g></svg>