<svg xmlns="http://www.w3.org/2000/svg" viewBox="0 0 52 52"><defs><style>.cls-1{fill:#2a426c;}.cls-2{fill:#fff;}.cls-3{fill:#4bca81;}</style></defs><g id="icons"><g id="gown"><rect class="cls-1" x="4" width="48" height="48" rx="24"/><path id="gown-2" data-name="gown" class="cls-2" d="M42.1,18.36,33.28,14A6.58,6.58,0,0,1,28,16.12,6.58,6.58,0,0,1,22.72,14L13.9,18.36a.72.72,0,0,0-.32,1l2.59,5.19a.72.72,0,0,0,1,.32l2.57-1.25a.72.72,0,0,1,1,.65l-1,16.33A1.45,1.45,0,0,0,21.23,42H34.76a1.45,1.45,0,0,0,1.45-1.45l-1-16.33a.72.72,0,0,1,1-.65l2.56,1.25a.73.73,0,0,0,1-.33l2.59-5.18A.71.71,0,0,0,42.1,18.36Z" transform="translate(0 -4)"/></g></g><g id="type"><circle class="cls-1" cx="37" cy="34" r="9"/><g id="_4" data-name="4"><path class="cls-2" d="M37.69,41.44V40.26H34.5a1.31,1.31,0,0,1-.9-.27,1,1,0,0,1-.3-.75.67.67,0,0,1,0-.24,1.26,1.26,0,0,1,.13-.26l.19-.27.23-.31,3.37-4.5A5.43,5.43,0,0,1,37.8,33a.73.73,0,0,1,.51-.2c.64,0,1,.37,1,1.1v4.92h.27a1.89,1.89,0,0,1,.78.13.56.56,0,0,1,.3.58.61.61,0,0,1-.24.54,1.31,1.31,0,0,1-.73.17h-.38v1.18a1.1,1.1,0,0,1-.22.73.77.77,0,0,1-.58.23.72.72,0,0,1-.57-.24A1,1,0,0,1,37.69,41.44ZM35,38.84h2.73V35.15Z" transform="translate(0 -4)"/></g></g><g id="status"><g id="available"><circle id="bg" class="cls-3" cx="12" cy="40" r="12"/><g id="check"><path class="cls-2" d="M5,44.48a.72.72,0,0,1,0-1l1-1a.72.72,0,0,1,1,0l3.15,3.15L17,38.84a.72.72,0,0,1,1,0l1,1a.72.72,0,0,1,0,1l-8.28,8.28a.72.72,0,0,1-1,0Z" transform="translate(0 -4)"/></g></g></g></svg>