<svg xmlns="http://www.w3.org/2000/svg" viewBox="0 0 48 48"><defs><style>.cls-1{fill:#2a426c;}.cls-2{fill:#fff;}</style></defs><g id="icons"><g id="gown"><rect class="cls-1" width="48" height="48" rx="24"/><path id="gown-2" data-name="gown" class="cls-2" d="M42.1,18.36,33.28,14A6.58,6.58,0,0,1,28,16.12,6.58,6.58,0,0,1,22.72,14L13.9,18.36a.72.72,0,0,0-.32,1l2.59,5.19a.72.72,0,0,0,1,.32l2.57-1.25a.72.72,0,0,1,1,.65l-1,16.33A1.45,1.45,0,0,0,21.23,42H34.76a1.45,1.45,0,0,0,1.45-1.45l-1-16.33a.72.72,0,0,1,1-.65l2.56,1.25a.73.73,0,0,0,1-.33l2.59-5.18A.71.71,0,0,0,42.1,18.36Z" transform="translate(-4 -4)"/></g></g><g id="type"><circle class="cls-1" cx="33" cy="34" r="9"/><g id="_3" data-name="3"><path class="cls-2" d="M36.7,36.63a1.52,1.52,0,0,0,1-.35,1.15,1.15,0,0,0,.43-1,1.18,1.18,0,0,0-1.25-1.19,1.5,1.5,0,0,0-.64.11,1,1,0,0,0-.39.28,2.15,2.15,0,0,0-.28.46l-.24.53a.44.44,0,0,1-.22.2.83.83,0,0,1-.39.08.65.65,0,0,1-.46-.21.72.72,0,0,1-.21-.54,1.48,1.48,0,0,1,.19-.7,2.83,2.83,0,0,1,1.54-1.22,3.7,3.7,0,0,1,1.28-.21,3.56,3.56,0,0,1,1.12.17,2.84,2.84,0,0,1,.89.49,2.11,2.11,0,0,1,.56.74,2,2,0,0,1,.19.9,2.12,2.12,0,0,1-.27,1.09,3.78,3.78,0,0,1-.8.88,3.63,3.63,0,0,1,.84.61,2.21,2.21,0,0,1,.51.76,2.25,2.25,0,0,1,.17.9A2.87,2.87,0,0,1,40,40.54a2.9,2.9,0,0,1-.68,1,3.32,3.32,0,0,1-1.07.66,4,4,0,0,1-1.37.23,3.27,3.27,0,0,1-1.36-.27,3.09,3.09,0,0,1-1-.68A3.26,3.26,0,0,1,34,40.6a1.88,1.88,0,0,1-.2-.72.78.78,0,0,1,.24-.6.83.83,0,0,1,.59-.22.64.64,0,0,1,.35.1.49.49,0,0,1,.21.25,4.21,4.21,0,0,0,.71,1.31,1.33,1.33,0,0,0,1.06.43,1.56,1.56,0,0,0,.76-.19,1.49,1.49,0,0,0,.6-.57,1.65,1.65,0,0,0,.24-.89,1.6,1.6,0,0,0-.4-1.16A1.5,1.5,0,0,0,37,37.92l-.4,0-.34,0a.77.77,0,0,1-.54-.18.6.6,0,0,1-.19-.48.63.63,0,0,1,.23-.5,1.08,1.08,0,0,1,.68-.18Z" transform="translate(-4 -4)"/></g></g></svg>