<svg xmlns="http://www.w3.org/2000/svg" viewBox="0 0 52 52"><defs><style>.cls-1{fill:#2a426c;}.cls-2{fill:#fff;}.cls-3{fill:#ff9a3c;}</style></defs><g id="icons"><g id="patient"><rect class="cls-1" x="4" width="48" height="48" rx="24"/><path class="cls-2" d="M28,25.09A6.83,6.83,0,0,0,35,18.41a6.93,6.93,0,0,0-13.86,0A6.83,6.83,0,0,0,28,25.09Z" transform="translate(0 -4)"/><path class="cls-2" d="M31.65,26.47a7.17,7.17,0,0,1-3.62,1,7.77,7.77,0,0,1-3.62-1,13.13,13.13,0,0,0-8.84,12.6,1.13,1.13,0,0,0,1,1.2H39.39a1.13,1.13,0,0,0,1-1.2A13,13,0,0,0,31.65,26.47Z" transform="translate(0 -4)"/></g></g><g id="status"><g id="presumptive"><circle id="bg" class="cls-3" cx="12" cy="40" r="12"/><path class="cls-2" d="M18.81,50l-.78.78a.66.66,0,0,1-.92,0l-2.73-2.73a.66.66,0,0,1-.19-.46v-.45A5.69,5.69,0,0,1,5,42.69a5.69,5.69,0,1,1,10.17,3.5h.45a.66.66,0,0,1,.46.19l2.73,2.72A.67.67,0,0,1,18.81,50Zm-4.62-7.34a3.5,3.5,0,1,0-3.5,3.5A3.5,3.5,0,0,0,14.19,42.69Z" transform="translate(0 -4)"/></g></g></svg>