<svg xmlns="http://www.w3.org/2000/svg" viewBox="0 0 48 48"><defs><style>.cls-1{fill:#2a426c;}.cls-2{fill:#fff;}</style></defs><g id="icons"><g id="gown"><rect class="cls-1" width="48" height="48" rx="24"/><path id="gown-2" data-name="gown" class="cls-2" d="M42.1,18.36,33.28,14A6.58,6.58,0,0,1,28,16.12,6.58,6.58,0,0,1,22.72,14L13.9,18.36a.72.72,0,0,0-.32,1l2.59,5.19a.72.72,0,0,0,1,.32l2.57-1.25a.72.72,0,0,1,1,.65l-1,16.33A1.45,1.45,0,0,0,21.23,42H34.76a1.45,1.45,0,0,0,1.45-1.45l-1-16.33a.72.72,0,0,1,1-.65l2.56,1.25a.73.73,0,0,0,1-.33l2.59-5.18A.71.71,0,0,0,42.1,18.36Z" transform="translate(-4 -4)"/></g></g><g id="type"><circle class="cls-1" cx="33" cy="34" r="9"/><g id="s"><path class="cls-2" d="M40.75,39.45A2.75,2.75,0,0,1,40.32,41,2.86,2.86,0,0,1,39,42a4.63,4.63,0,0,1-2,.38,4.47,4.47,0,0,1-2.28-.52,3.08,3.08,0,0,1-1-1,2.27,2.27,0,0,1-.39-1.21.8.8,0,0,1,.84-.83.72.72,0,0,1,.51.19,1.54,1.54,0,0,1,.35.56,3.73,3.73,0,0,0,.38.75,1.66,1.66,0,0,0,.58.49A2.16,2.16,0,0,0,37,41a2.22,2.22,0,0,0,1.36-.39,1.16,1.16,0,0,0,.52-1,1.05,1.05,0,0,0-.28-.76,1.83,1.83,0,0,0-.73-.44,12.12,12.12,0,0,0-1.2-.32A8.94,8.94,0,0,1,35,37.59a2.78,2.78,0,0,1-1.07-.86,2.25,2.25,0,0,1-.4-1.35A2.31,2.31,0,0,1,34,34a2.63,2.63,0,0,1,1.22-.92A5,5,0,0,1,37,32.78a4.63,4.63,0,0,1,1.48.21,3.12,3.12,0,0,1,1,.57,2.13,2.13,0,0,1,.6.74,1.69,1.69,0,0,1,.2.75.89.89,0,0,1-.24.61.77.77,0,0,1-.6.27.67.67,0,0,1-.49-.16,2.39,2.39,0,0,1-.36-.53,2.44,2.44,0,0,0-.61-.82,1.78,1.78,0,0,0-1.15-.3,2,2,0,0,0-1.17.32.93.93,0,0,0-.45.77.76.76,0,0,0,.15.48,1.13,1.13,0,0,0,.42.35,2.5,2.5,0,0,0,.54.23q.27.09.9.24c.53.13,1,.26,1.43.41a4.54,4.54,0,0,1,1.08.54,2.24,2.24,0,0,1,.7.8A2.55,2.55,0,0,1,40.75,39.45Z" transform="translate(-4 -4)"/></g></g></svg>