<svg xmlns="http://www.w3.org/2000/svg" viewBox="0 0 52 52"><defs><style>.cls-1{fill:#2a426c;}.cls-2{fill:#fff;}.cls-3{fill:#969492;}</style></defs><g id="icons"><g id="bed"><rect class="cls-1" x="4" width="48" height="48" rx="24"/><path class="cls-2" d="M16,17.69V38.31a1.12,1.12,0,0,0,2.23,0V33.12H39.77v5.19a1.12,1.12,0,0,0,2.23,0V21.92a1.12,1.12,0,0,0-2.23,0v3.7H18.28V17.69a1.11,1.11,0,0,0-1.11-1.11A1.21,1.21,0,0,0,16,17.69Z" transform="translate(0 -4)"/><path class="cls-2" d="M26.58,22.36a1.11,1.11,0,0,0-1.12-1.1H21.51a1.1,1.1,0,1,0,0,2.2h3.95A1.11,1.11,0,0,0,26.58,22.36Z" transform="translate(0 -4)"/></g></g><g id="status"><g id="inactive"><circle id="bg" class="cls-3" cx="12" cy="40" r="12"/><g id="times"><path class="cls-2" d="M17.47,47.28a1,1,0,0,1,0,1.46l-.73.73a1,1,0,0,1-1.46,0L12,46.19,8.72,49.47a1,1,0,0,1-1.46,0l-.73-.73a1,1,0,0,1,0-1.46L9.81,44,6.53,40.72a1,1,0,0,1,0-1.46l.73-.73a1,1,0,0,1,1.46,0L12,41.81l3.28-3.28a1,1,0,0,1,1.46,0l.73.73a1,1,0,0,1,0,1.46L14.19,44Z" transform="translate(0 -4)"/></g></g></g></svg>