<svg xmlns="http://www.w3.org/2000/svg" viewBox="0 0 50.96 51.89"><defs><style>.cls-1{fill:#2a426c;}.cls-2{fill:#fff;}.cls-3{fill:#d4504c;}</style></defs><g id="patient"><rect class="cls-1" x="2.96" width="48" height="48" rx="24"/><path class="cls-2" d="M31.6,29.5a6.83,6.83,0,0,0,6.93-6.68,6.93,6.93,0,0,0-13.86,0A6.83,6.83,0,0,0,31.6,29.5Z" transform="translate(-5.04 -8)"/><path class="cls-2" d="M35.22,30.88a7.17,7.17,0,0,1-3.62.95A7.77,7.77,0,0,1,28,30.88a13.13,13.13,0,0,0-8.84,12.6,1.13,1.13,0,0,0,1,1.2H43a1.13,1.13,0,0,0,1-1.2A13,13,0,0,0,35.22,30.88Z" transform="translate(-5.04 -8)"/></g><g id="equip_status" data-name="equip status"><g id="cormobidity"><circle id="bg" class="cls-3" cx="12" cy="39.89" r="12"/><path id="bug" class="cls-2" d="M24.17,46.39h-.75a.37.37,0,0,0-.38.37v.38H21.86A4.88,4.88,0,0,0,21,45l.88-.88.26.26a.37.37,0,0,0,.53,0l.53-.53a.37.37,0,0,0,0-.53l-1.59-1.59a.39.39,0,0,0-.53,0l-.53.53a.37.37,0,0,0,0,.53l.27.27-.88.88a4.87,4.87,0,0,0-2.12-.88V41.89h.37a.38.38,0,0,0,.38-.37v-.75a.38.38,0,0,0-.38-.38H15.92a.38.38,0,0,0-.37.38v.75a.38.38,0,0,0,.37.37h.38v1.19a4.7,4.7,0,0,0-2.14.89l-.79-.89.28-.25a.38.38,0,0,0,0-.53l-.5-.56a.37.37,0,0,0-.52,0L11,43.2a.38.38,0,0,0,0,.53l.49.56a.38.38,0,0,0,.53,0l.28-.25.86,1a4.88,4.88,0,0,0-.86,2.1H11.06v-.38a.39.39,0,0,0-.38-.38H10a.37.37,0,0,0-.38.37l0,2.25a.38.38,0,0,0,.37.37h.75A.37.37,0,0,0,11,49v-.37h1.19a4.84,4.84,0,0,0,.86,2.09l-.86,1L12,51.44a.38.38,0,0,0-.53,0l-.5.56a.39.39,0,0,0,0,.53l1.68,1.5a.39.39,0,0,0,.53,0l.5-.56a.38.38,0,0,0,0-.53l-.28-.25.8-.89a4.71,4.71,0,0,0,2.13.89l0,1.2h-.37a.37.37,0,0,0-.37.38V55a.38.38,0,0,0,.38.37l2.25,0a.38.38,0,0,0,.37-.38l0-.75a.37.37,0,0,0-.38-.37h-.37l0-1.18a4.84,4.84,0,0,0,2.13-.87l.88.87-.27.27a.37.37,0,0,0,0,.53l.53.53a.39.39,0,0,0,.53,0l1.59-1.59a.37.37,0,0,0,0-.53l-.53-.53a.37.37,0,0,0-.53,0l-.26.26L21,50.76a5,5,0,0,0,.88-2.13H23V49a.37.37,0,0,0,.38.37h.75a.37.37,0,0,0,.37-.37V46.76A.37.37,0,0,0,24.17,46.39Z" transform="translate(-5.04 -8)"/></g></g></svg>