<svg xmlns="http://www.w3.org/2000/svg" viewBox="0 0 50.96 51.89"><defs><style>.cls-1{fill:#2a426c;}.cls-2{fill:#fff;}.cls-3{fill:#0070d2;}</style></defs><g id="patient"><rect class="cls-1" x="2.96" width="48" height="48" rx="24"/><path class="cls-2" d="M31.6,29.5a6.83,6.83,0,0,0,6.93-6.68,6.93,6.93,0,0,0-13.86,0A6.83,6.83,0,0,0,31.6,29.5Z" transform="translate(-5.04 -8)"/><path class="cls-2" d="M35.22,30.88a7.17,7.17,0,0,1-3.62.95A7.77,7.77,0,0,1,28,30.88a13.13,13.13,0,0,0-8.84,12.6,1.13,1.13,0,0,0,1,1.2H43a1.13,1.13,0,0,0,1-1.2A13,13,0,0,0,35.22,30.88Z" transform="translate(-5.04 -8)"/></g><g id="equip_status" data-name="equip status"><g id="covid_like" data-name="covid like"><circle id="bg" class="cls-3" cx="12" cy="39.89" r="12"/><path class="cls-2" d="M22.2,44.89c0,3.4-3.67,3.45-3.67,4.71v.17a.7.7,0,0,1-.71.7H15.7a.7.7,0,0,1-.7-.7v-.29c0-1.81,1.37-2.53,2.41-3.11s1.43-.84,1.43-1.5c0-.88-1.11-1.46-2-1.46a2.85,2.85,0,0,0-2.43,1.45.7.7,0,0,1-1,.12l-1.26-1a.7.7,0,0,1-.16-1,5.69,5.69,0,0,1,5-2.67C19.54,40.39,22.2,42.34,22.2,44.89Zm-3.41,8.47a2,2,0,1,1-2-2A2,2,0,0,1,18.79,53.36Z" transform="translate(-5.04 -8)"/></g></g></svg>